<?xml version="1.0" encoding="utf-8"?>
<!-- Generator: Adobe Illustrator 24.1.1, SVG Export Plug-In . SVG Version: 6.00 Build 0)  -->
<svg version="1.1" id="Layer_1" xmlns="http://www.w3.org/2000/svg" xmlns:xlink="http://www.w3.org/1999/xlink" x="0px" y="0px"
	 viewBox="0 0 512 512" style="enable-background:new 0 0 512 512;" xml:space="preserve">
<g id="XMLID_1_">
	<path id="XMLID_6_" d="M495.9,436.3L374.7,332.9c-12.1-11.2-26.1-16.8-36.4-15.8c28.9-33.6,45.7-77.4,45.7-124.9
		c0-106.3-85.8-192-192-192S0,85.8,0,192.1s85.8,192,192,192c47.5,0,91.4-17.7,124.9-45.7c-0.9,11.2,4.7,24.2,15.8,36.4L436.3,496
		c17.7,19.6,46.6,21.4,64.3,3.7C517.4,482.9,515.5,454.1,495.9,436.3L495.9,436.3z M191.1,320.7c-70.8,0-128.6-57.8-128.6-128.6
		S120.3,63.5,191.1,63.5s128.6,57.8,128.6,128.6C319.7,263,261.9,320.7,191.1,320.7z M223.7,96.1h-64.3v64.3H95.1v64.3h64.3v64.3
		h64.3v-64.3H288v-64.3h-64.3V96.1z"/>
</g>
</svg>
